<svg width="14" height="14" viewBox="0 0 14 14" fill="none" xmlns="http://www.w3.org/2000/svg">
  <path
    d="M6.99998 8.04998L1.74998 13.3C1.59998 13.45 1.42498 13.525 1.22498 13.525C1.02498 13.525 0.849975 13.45 0.699975 13.3C0.549975 13.15 0.474976 12.975 0.474976 12.775C0.474976 12.575 0.549975 12.4 0.699975 12.25L5.94998 6.99998L0.699975 1.74998C0.549975 1.59998 0.474976 1.42498 0.474976 1.22498C0.474976 1.02498 0.549975 0.849975 0.699975 0.699975C0.849975 0.549975 1.02498 0.474976 1.22498 0.474976C1.42498 0.474976 1.59998 0.549975 1.74998 0.699975L6.99998 5.94998L12.25 0.699975C12.4 0.549975 12.575 0.474976 12.775 0.474976C12.975 0.474976 13.15 0.549975 13.3 0.699975C13.45 0.849975 13.525 1.02498 13.525 1.22498C13.525 1.42498 13.45 1.59998 13.3 1.74998L8.04998 6.99998L13.3 12.25C13.45 12.4 13.525 12.575 13.525 12.775C13.525 12.975 13.45 13.15 13.3 13.3C13.15 13.45 12.975 13.525 12.775 13.525C12.575 13.525 12.4 13.45 12.25 13.3L6.99998 8.04998Z"
    fill="white" />
</svg>
