<svg width="19" height="20" viewBox="0 0 19 20" fill="none" xmlns="http://www.w3.org/2000/svg">
  <path
    d="M15.175 20C14.3917 20 13.7208 19.7208 13.1625 19.1625C12.6042 18.6042 12.325 17.9333 12.325 17.15C12.325 17.0333 12.3375 16.8958 12.3625 16.7375C12.3875 16.5792 12.425 16.4333 12.475 16.3L4.9 11.9C4.65 12.1833 4.34167 12.4125 3.975 12.5875C3.60833 12.7625 3.23333 12.85 2.85 12.85C2.06667 12.85 1.39583 12.5708 0.8375 12.0125C0.279167 11.4542 0 10.7833 0 10C0 9.2 0.279167 8.525 0.8375 7.975C1.39583 7.425 2.06667 7.15 2.85 7.15C3.23333 7.15 3.6 7.225 3.95 7.375C4.3 7.525 4.61667 7.74167 4.9 8.025L12.475 3.675C12.425 3.55833 12.3875 3.425 12.3625 3.275C12.3375 3.125 12.325 2.98333 12.325 2.85C12.325 2.05 12.6042 1.375 13.1625 0.825C13.7208 0.275 14.3917 0 15.175 0C15.975 0 16.65 0.275 17.2 0.825C17.75 1.375 18.025 2.05 18.025 2.85C18.025 3.63333 17.75 4.30417 17.2 4.8625C16.65 5.42083 15.975 5.7 15.175 5.7C14.7917 5.7 14.4208 5.6375 14.0625 5.5125C13.7042 5.3875 13.4 5.18333 13.15 4.9L5.575 9.1C5.60833 9.23333 5.6375 9.3875 5.6625 9.5625C5.6875 9.7375 5.7 9.88333 5.7 10C5.7 10.1167 5.6875 10.2417 5.6625 10.375C5.6375 10.5083 5.60833 10.6417 5.575 10.775L13.15 15.075C13.4 14.8417 13.6917 14.6542 14.025 14.5125C14.3583 14.3708 14.7417 14.3 15.175 14.3C15.975 14.3 16.65 14.575 17.2 15.125C17.75 15.675 18.025 16.35 18.025 17.15C18.025 17.9333 17.75 18.6042 17.2 19.1625C16.65 19.7208 15.975 20 15.175 20ZM15.175 4.2C15.5583 4.2 15.8792 4.07083 16.1375 3.8125C16.3958 3.55417 16.525 3.23333 16.525 2.85C16.525 2.46667 16.3958 2.14583 16.1375 1.8875C15.8792 1.62917 15.5583 1.5 15.175 1.5C14.7917 1.5 14.4708 1.62917 14.2125 1.8875C13.9542 2.14583 13.825 2.46667 13.825 2.85C13.825 3.23333 13.9542 3.55417 14.2125 3.8125C14.4708 4.07083 14.7917 4.2 15.175 4.2ZM2.85 11.35C3.23333 11.35 3.55417 11.2208 3.8125 10.9625C4.07083 10.7042 4.2 10.3833 4.2 10C4.2 9.61667 4.07083 9.29583 3.8125 9.0375C3.55417 8.77917 3.23333 8.65 2.85 8.65C2.46667 8.65 2.14583 8.77917 1.8875 9.0375C1.62917 9.29583 1.5 9.61667 1.5 10C1.5 10.3833 1.62917 10.7042 1.8875 10.9625C2.14583 11.2208 2.46667 11.35 2.85 11.35ZM15.175 18.5C15.5583 18.5 15.8792 18.3708 16.1375 18.1125C16.3958 17.8542 16.525 17.5333 16.525 17.15C16.525 16.7667 16.3958 16.4458 16.1375 16.1875C15.8792 15.9292 15.5583 15.8 15.175 15.8C14.7917 15.8 14.4708 15.9292 14.2125 16.1875C13.9542 16.4458 13.825 16.7667 13.825 17.15C13.825 17.5333 13.9542 17.8542 14.2125 18.1125C14.4708 18.3708 14.7917 18.5 15.175 18.5Z"
    fill="white" />
</svg>
