<svg width="20" height="20" viewBox="0 0 20 20" fill="none" xmlns="http://www.w3.org/2000/svg">
  <path
    d="M8.525 12.275L6.075 9.825C5.925 9.675 5.74167 9.6 5.525 9.6C5.30833 9.6 5.11667 9.68333 4.95 9.85C4.78333 10.0167 4.7 10.2083 4.7 10.425C4.7 10.6417 4.78333 10.825 4.95 10.975L8 14.025C8.15 14.175 8.325 14.25 8.525 14.25C8.725 14.25 8.9 14.175 9.05 14.025L15.05 8.025C15.2 7.875 15.2708 7.69167 15.2625 7.475C15.2542 7.25833 15.175 7.075 15.025 6.925C14.875 6.75833 14.6875 6.675 14.4625 6.675C14.2375 6.675 14.0417 6.75833 13.875 6.925L8.525 12.275ZM10 20C8.58333 20 7.26667 19.7458 6.05 19.2375C4.83333 18.7292 3.775 18.025 2.875 17.125C1.975 16.225 1.27083 15.1667 0.7625 13.95C0.254167 12.7333 0 11.4167 0 10C0 8.6 0.254167 7.29167 0.7625 6.075C1.27083 4.85833 1.975 3.8 2.875 2.9C3.775 2 4.83333 1.29167 6.05 0.775C7.26667 0.258333 8.58333 0 10 0C11.4 0 12.7083 0.258333 13.925 0.775C15.1417 1.29167 16.2 2 17.1 2.9C18 3.8 18.7083 4.85833 19.225 6.075C19.7417 7.29167 20 8.6 20 10C20 11.4167 19.7417 12.7333 19.225 13.95C18.7083 15.1667 18 16.225 17.1 17.125C16.2 18.025 15.1417 18.7292 13.925 19.2375C12.7083 19.7458 11.4 20 10 20ZM10 18.5C12.4167 18.5 14.4375 17.6875 16.0625 16.0625C17.6875 14.4375 18.5 12.4167 18.5 10C18.5 7.58333 17.6875 5.5625 16.0625 3.9375C14.4375 2.3125 12.4167 1.5 10 1.5C7.58333 1.5 5.5625 2.3125 3.9375 3.9375C2.3125 5.5625 1.5 7.58333 1.5 10C1.5 12.4167 2.3125 14.4375 3.9375 16.0625C5.5625 17.6875 7.58333 18.5 10 18.5Z"
    fill="#265F46" />
</svg>
